<?xml version="1.0" encoding="UTF-8"?>
<svg version="1.1" x="0px" y="0px" viewBox="0 0 100 100" enable-background="new 0 0 100 100" data-icon="crate" xmlns="http://www.w3.org/2000/svg">
  <path d="M10.444,32.25v44.491h78.185V32.25H10.444z M54.825,37.542c1.125,0,2.036,0.912,2.036,2.038 c0,1.125-0.912,2.036-2.036,2.036h-9.704c-1.125,0-2.037-0.911-2.037-2.036c0-1.126,0.911-2.038,2.037-2.038H54.825z M27.396,73.794 c0,0.59-0.478,1.067-1.066,1.067h-6.25c-0.589,0-1.067-0.477-1.067-1.067v-6.251c0-0.587,0.478-1.065,1.067-1.065h6.25 c0.588,0,1.066,0.478,1.066,1.065V73.794z M27.396,63.262c0,0.588-0.478,1.066-1.066,1.066h-6.25c-0.589,0-1.067-0.478-1.067-1.066 v-6.25c0-0.588,0.478-1.066,1.067-1.066h6.25c0.588,0,1.066,0.478,1.066,1.066V63.262z M27.396,52.729 c0,0.59-0.478,1.067-1.066,1.067h-6.25c-0.589,0-1.067-0.478-1.067-1.067v-6.25c0-0.588,0.478-1.065,1.067-1.065h6.25 c0.588,0,1.066,0.477,1.066,1.065V52.729z M37.929,73.794c0,0.59-0.478,1.067-1.066,1.067h-6.251c-0.589,0-1.066-0.477-1.066-1.067 v-6.251c0-0.587,0.477-1.065,1.066-1.065h6.251c0.588,0,1.066,0.478,1.066,1.065V73.794z M37.929,52.729 c0,0.59-0.478,1.067-1.066,1.067h-6.251c-0.589,0-1.066-0.478-1.066-1.067v-6.25c0-0.588,0.477-1.065,1.066-1.065h6.251 c0.588,0,1.066,0.477,1.066,1.065V52.729z M48.461,73.794c0,0.59-0.478,1.067-1.066,1.067h-6.252c-0.587,0-1.066-0.477-1.066-1.067 v-6.251c0-0.587,0.479-1.065,1.066-1.065h6.252c0.588,0,1.066,0.478,1.066,1.065V73.794z M48.461,52.729 c0,0.59-0.478,1.067-1.066,1.067h-6.252c-0.587,0-1.066-0.478-1.066-1.067v-6.25c0-0.588,0.479-1.065,1.066-1.065h6.252 c0.588,0,1.066,0.477,1.066,1.065V52.729z M58.994,73.794c0,0.59-0.478,1.067-1.066,1.067h-6.252c-0.588,0-1.065-0.477-1.065-1.067 v-6.251c0-0.587,0.477-1.065,1.065-1.065h6.252c0.588,0,1.066,0.478,1.066,1.065V73.794z M58.994,52.729 c0,0.59-0.478,1.067-1.066,1.067h-6.252c-0.588,0-1.065-0.478-1.065-1.067v-6.25c0-0.588,0.477-1.065,1.065-1.065h6.252 c0.588,0,1.066,0.477,1.066,1.065V52.729z M69.526,73.794c0,0.59-0.478,1.067-1.066,1.067h-6.251c-0.588,0-1.066-0.477-1.066-1.067 v-6.251c0-0.587,0.478-1.065,1.066-1.065h6.251c0.588,0,1.066,0.478,1.066,1.065V73.794z M69.526,52.729 c0,0.59-0.478,1.067-1.066,1.067h-6.251c-0.588,0-1.066-0.478-1.066-1.067v-6.25c0-0.588,0.478-1.065,1.066-1.065h6.251 c0.588,0,1.066,0.477,1.066,1.065V52.729z M71.525,34.157h8.366v1.845h-8.366V34.157z M71.525,36.955h8.366V38.8h-8.366V36.955z M61.12,34.157h8.367v1.845H61.12V34.157z M61.12,36.955h8.367V38.8H61.12V36.955z M40.31,34.157h8.367v1.845H40.31V34.157z M27.866,41.599h-8.367v-1.845h8.367V41.599z M27.866,38.8h-8.367v-1.845h8.367V38.8z M27.866,36.002h-8.367v-1.845h8.367V36.002z M38.272,41.599h-8.368v-1.845h8.368V41.599z M38.272,38.8h-8.368v-1.845h8.368V38.8z M38.272,36.002h-8.368v-1.845h8.368V36.002z M59.082,36.002h-8.368v-1.845h8.368V36.002z M61.12,39.753h8.367v1.845H61.12V39.753z M71.525,39.753h8.366v1.845h-8.366V39.753z M80.058,73.794c0,0.59-0.477,1.067-1.066,1.067h-6.251c-0.588,0-1.066-0.477-1.066-1.067v-6.251c0-0.587,0.478-1.065,1.066-1.065 h6.251c0.589,0,1.066,0.478,1.066,1.065V73.794z M80.058,63.262c0,0.588-0.477,1.066-1.066,1.066h-6.251 c-0.588,0-1.066-0.478-1.066-1.066v-6.25c0-0.588,0.478-1.066,1.066-1.066h6.251c0.589,0,1.066,0.478,1.066,1.066V63.262z M80.058,52.729c0,0.59-0.477,1.067-1.066,1.067h-6.251c-0.588,0-1.066-0.478-1.066-1.067v-6.25c0-0.588,0.478-1.065,1.066-1.065 h6.251c0.589,0,1.066,0.477,1.066,1.065V52.729z"/>
</svg>
